<svg xmlns="http://www.w3.org/2000/svg" width="1400" height="900">
<defs>
  <style>
    .title { font-family: Arial, sans-serif; font-size: 28px; font-weight: bold; fill: #333; }
    .shape-label { font-family: Arial, sans-serif; font-size: 14px; font-weight: bold; fill: #333; }
    .marker-label { font-family: monospace; font-size: 18px; font-weight: bold; fill: #333; }
  </style>
</defs>

<rect x="0" y="0" width="1400" height="900" fill="#fafafa"/>
<text x="700" y="50" class="title" text-anchor="middle">Mernithian Shape & Iteration Matrix</text>
<text x="700" y="80" class="shape-label" text-anchor="middle">6 Shapes × 4 Iteration Markers = 24 Core Glyphs</text>

<text x="300" y="130" class="marker-label" text-anchor="middle">+</text>
<text x="300" y="150" class="shape-label" text-anchor="middle" style="font-size: 11px;">Base (no optimization)</text>
<text x="550" y="130" class="marker-label" text-anchor="middle">/</text>
<text x="550" y="150" class="shape-label" text-anchor="middle" style="font-size: 11px;">Routed (smart routing)</text>
<text x="800" y="130" class="marker-label" text-anchor="middle">x</text>
<text x="800" y="150" class="shape-label" text-anchor="middle" style="font-size: 11px;">Batched (batch processing)</text>
<text x="1050" y="130" class="marker-label" text-anchor="middle">o</text>
<text x="1050" y="150" class="shape-label" text-anchor="middle" style="font-size: 11px;">Optimized (full optimization)</text>
<text x="100" y="240" class="shape-label">Circle</text>
<text x="100" y="258" class="shape-label" style="font-size: 10px; fill: #999;">Compute operations</text>
<g transform="translate(260, 200)">
<circle cx="40" cy="40" r="16.0" fill="#ff0000" stroke="#333" stroke-width="2" stroke-dasharray="5,3"/>
<text x="100.0" y="52.0" font-size="12.0" fill="#333" font-weight="bold">+</text>
</g>
<g transform="translate(510, 200)">
<circle cx="40" cy="40" r="16.0" fill="#ffa500" stroke="#333" stroke-width="2" stroke-dasharray="5,3"/>
<text x="100.0" y="52.0" font-size="12.0" fill="#333" font-weight="bold">/</text>
</g>
<g transform="translate(760, 200)">
<circle cx="40" cy="40" r="16.0" fill="#ffff00" stroke="#333" stroke-width="2" stroke-dasharray="5,3"/>
<text x="100.0" y="52.0" font-size="12.0" fill="#333" font-weight="bold">x</text>
</g>
<g transform="translate(1010, 200)">
<circle cx="40" cy="40" r="16.0" fill="#00ff00" stroke="#333" stroke-width="2" stroke-dasharray="5,3"/>
<text x="100.0" y="52.0" font-size="12.0" fill="#333" font-weight="bold">o</text>
</g>
<text x="100" y="360" class="shape-label">Triangle</text>
<text x="100" y="378" class="shape-label" style="font-size: 10px; fill: #999;">Memory operations</text>
<g transform="translate(260, 320)">
<polygon points="40,24.0 26.0,52.0 54.0,52.0" fill="#ff0000" stroke="#333" stroke-width="2" />
<text x="100.0" y="52.0" font-size="12.0" fill="#333" font-weight="bold">+</text>
</g>
<g transform="translate(510, 320)">
<polygon points="40,24.0 26.0,52.0 54.0,52.0" fill="#ffa500" stroke="#333" stroke-width="2" />
<text x="100.0" y="52.0" font-size="12.0" fill="#333" font-weight="bold">/</text>
</g>
<g transform="translate(760, 320)">
<polygon points="40,24.0 26.0,52.0 54.0,52.0" fill="#ffff00" stroke="#333" stroke-width="2" />
<text x="100.0" y="52.0" font-size="12.0" fill="#333" font-weight="bold">x</text>
</g>
<g transform="translate(1010, 320)">
<polygon points="40,24.0 26.0,52.0 54.0,52.0" fill="#00ff00" stroke="#333" stroke-width="2" />
<text x="100.0" y="52.0" font-size="12.0" fill="#333" font-weight="bold">o</text>
</g>
<text x="100" y="480" class="shape-label">Square</text>
<text x="100" y="498" class="shape-label" style="font-size: 10px; fill: #999;">Control flow</text>
<g transform="translate(260, 440)">
<rect x="26.0" y="26.0" width="28.0" height="28.0" fill="#ff0000" stroke="#333" stroke-width="2" stroke-dasharray="5,3"/>
<text x="100.0" y="52.0" font-size="12.0" fill="#333" font-weight="bold">+</text>
</g>
<g transform="translate(510, 440)">
<rect x="26.0" y="26.0" width="28.0" height="28.0" fill="#ffa500" stroke="#333" stroke-width="2" stroke-dasharray="5,3"/>
<text x="100.0" y="52.0" font-size="12.0" fill="#333" font-weight="bold">/</text>
</g>
<g transform="translate(760, 440)">
<rect x="26.0" y="26.0" width="28.0" height="28.0" fill="#ffff00" stroke="#333" stroke-width="2" stroke-dasharray="5,3"/>
<text x="100.0" y="52.0" font-size="12.0" fill="#333" font-weight="bold">x</text>
</g>
<g transform="translate(1010, 440)">
<rect x="26.0" y="26.0" width="28.0" height="28.0" fill="#00ff00" stroke="#333" stroke-width="2" stroke-dasharray="5,3"/>
<text x="100.0" y="52.0" font-size="12.0" fill="#333" font-weight="bold">o</text>
</g>
<text x="100" y="600" class="shape-label">Diamond</text>
<text x="100" y="618" class="shape-label" style="font-size: 10px; fill: #999;">Transforms</text>
<g transform="translate(260, 560)">
<polygon points="40,24.0 56.0,40 40,56.0 24.0,40" fill="#ff0000" stroke="#333" stroke-width="2" />
<text x="100.0" y="52.0" font-size="12.0" fill="#333" font-weight="bold">+</text>
</g>
<g transform="translate(510, 560)">
<polygon points="40,24.0 56.0,40 40,56.0 24.0,40" fill="#ffa500" stroke="#333" stroke-width="2" />
<text x="100.0" y="52.0" font-size="12.0" fill="#333" font-weight="bold">/</text>
</g>
<g transform="translate(760, 560)">
<polygon points="40,24.0 56.0,40 40,56.0 24.0,40" fill="#ffff00" stroke="#333" stroke-width="2" />
<text x="100.0" y="52.0" font-size="12.0" fill="#333" font-weight="bold">x</text>
</g>
<g transform="translate(1010, 560)">
<polygon points="40,24.0 56.0,40 40,56.0 24.0,40" fill="#00ff00" stroke="#333" stroke-width="2" />
<text x="100.0" y="52.0" font-size="12.0" fill="#333" font-weight="bold">o</text>
</g>
<text x="100" y="720" class="shape-label">Hexagon</text>
<text x="100" y="738" class="shape-label" style="font-size: 10px; fill: #999;">Graph algorithms</text>
<g transform="translate(260, 680)">
<polygon points="56.0,40.0 48.0,53.856406460551014 32.0,53.85640646055102 24.0,40.0 31.999999999999993,26.143593539448986 48.0,26.143593539448982" fill="#ff0000" stroke="#333" stroke-width="2" stroke-dasharray="5,3"/>
<text x="100.0" y="52.0" font-size="12.0" fill="#333" font-weight="bold">+</text>
</g>
<g transform="translate(510, 680)">
<polygon points="56.0,40.0 48.0,53.856406460551014 32.0,53.85640646055102 24.0,40.0 31.999999999999993,26.143593539448986 48.0,26.143593539448982" fill="#ffa500" stroke="#333" stroke-width="2" stroke-dasharray="5,3"/>
<text x="100.0" y="52.0" font-size="12.0" fill="#333" font-weight="bold">/</text>
</g>
<g transform="translate(760, 680)">
<polygon points="56.0,40.0 48.0,53.856406460551014 32.0,53.85640646055102 24.0,40.0 31.999999999999993,26.143593539448986 48.0,26.143593539448982" fill="#ffff00" stroke="#333" stroke-width="2" stroke-dasharray="5,3"/>
<text x="100.0" y="52.0" font-size="12.0" fill="#333" font-weight="bold">x</text>
</g>
<g transform="translate(1010, 680)">
<polygon points="56.0,40.0 48.0,53.856406460551014 32.0,53.85640646055102 24.0,40.0 31.999999999999993,26.143593539448986 48.0,26.143593539448982" fill="#00ff00" stroke="#333" stroke-width="2" stroke-dasharray="5,3"/>
<text x="100.0" y="52.0" font-size="12.0" fill="#333" font-weight="bold">o</text>
</g>
<text x="100" y="840" class="shape-label">Star</text>
<text x="100" y="858" class="shape-label" style="font-size: 10px; fill: #999;">Random generation</text>
<g transform="translate(260, 800)">
<polygon points="40.000021228718346,24.000000000014083 44.70228717065647,33.527867788380746 55.21690557272887,35.0557321279432 47.60845278636444,42.4721339360284 49.40457434131294,52.944264423238515 40.00001061435918,47.99999999999296 30.595460007488136,52.94428937907543 32.39155377369173,42.47215412573235 24.783081307265945,35.055772507385925 35.2976956549761,33.52788026634477" fill="#ff0000" stroke="#333" stroke-width="2" />
<text x="100.0" y="52.0" font-size="12.0" fill="#333" font-weight="bold">+</text>
</g>
<g transform="translate(510, 800)">
<polygon points="40.000021228718346,24.000000000014083 44.70228717065647,33.527867788380746 55.21690557272887,35.0557321279432 47.60845278636444,42.4721339360284 49.40457434131294,52.944264423238515 40.00001061435918,47.99999999999296 30.595460007488136,52.94428937907543 32.39155377369173,42.47215412573235 24.783081307265945,35.055772507385925 35.2976956549761,33.52788026634477" fill="#ffa500" stroke="#333" stroke-width="2" />
<text x="100.0" y="52.0" font-size="12.0" fill="#333" font-weight="bold">/</text>
</g>
<g transform="translate(760, 800)">
<polygon points="40.000021228718346,24.000000000014083 44.70228717065647,33.527867788380746 55.21690557272887,35.0557321279432 47.60845278636444,42.4721339360284 49.40457434131294,52.944264423238515 40.00001061435918,47.99999999999296 30.595460007488136,52.94428937907543 32.39155377369173,42.47215412573235 24.783081307265945,35.055772507385925 35.2976956549761,33.52788026634477" fill="#ffff00" stroke="#333" stroke-width="2" />
<text x="100.0" y="52.0" font-size="12.0" fill="#333" font-weight="bold">x</text>
</g>
<g transform="translate(1010, 800)">
<polygon points="40.000021228718346,24.000000000014083 44.70228717065647,33.527867788380746 55.21690557272887,35.0557321279432 47.60845278636444,42.4721339360284 49.40457434131294,52.944264423238515 40.00001061435918,47.99999999999296 30.595460007488136,52.94428937907543 32.39155377369173,42.47215412573235 24.783081307265945,35.055772507385925 35.2976956549761,33.52788026634477" fill="#00ff00" stroke="#333" stroke-width="2" />
<text x="100.0" y="52.0" font-size="12.0" fill="#333" font-weight="bold">o</text>
</g>
<text x="700" y="870" class="shape-label" text-anchor="middle" style="font-size: 12px; fill: #999;">Border: Solid=CPU, Dashed=GPU, Dotted=Hybrid | Colors: Performance-based encoding</text>
</svg>